<?xml version="1.0" encoding="utf-8"?>
<!-- Generator: Adobe Illustrator 19.0.0, SVG Export Plug-In . SVG Version: 6.00 Build 0)  -->
<svg version="1.1" id="Layer_1" xmlns="http://www.w3.org/2000/svg" xmlns:xlink="http://www.w3.org/1999/xlink" x="0px" y="0px"
	 viewBox="234 -144 1080 1080" style="enable-background:new 234 -144 1080 1080;" xml:space="preserve">
<style type="text/css">
	.st0{display:none;}
	.st1{display:inline;}
	.st2{clip-path:url(#SVGID_2_);fill:#ECD06F;}
	.st3{clip-path:url(#SVGID_4_);fill:#ECD06F;}
	.st4{clip-path:url(#SVGID_6_);fill:#ECD06F;}
	.st5{fill:#EEEEEE;}
</style>
<g id="Layer_1_1_" class="st0">
	<g class="st1">
		<g>
			<defs>
				<rect id="SVGID_1_" x="-1808.5" y="-144" width="1920" height="1080"/>
			</defs>
			<clipPath id="SVGID_2_">
				<use xlink:href="#SVGID_1_"  style="overflow:visible;"/>
			</clipPath>
			<path class="st2" d="M-736.3,408.6l-101.9-176.5l-15.6,27l14.6,25.2l61.1,105.8h-229.1l10.1,17.5c3.4,5.9,9.6,9.5,16.4,9.5h218.2
				h21.3C-736.9,417.1-734.1,412.4-736.3,408.6z"/>
		</g>
		<g>
			<defs>
				<rect id="SVGID_3_" x="-1808.5" y="-144" width="1920" height="1080"/>
			</defs>
			<clipPath id="SVGID_4_">
				<use xlink:href="#SVGID_3_"  style="overflow:visible;"/>
			</clipPath>
			<path class="st3" d="M-807.3,339.7L-807.3,339.7L-807.3,339.7h-153.3l0,0l0,0l61.1-105.8l46.8-81h-20.2c-6.8,0-13,3.6-16.4,9.5
				l-113,195.8c-2.2,3.8,0.5,8.5,4.9,8.5h21.3h184.5L-807.3,339.7z"/>
		</g>
		<g>
			<defs>
				<rect id="SVGID_5_" x="-1808.5" y="-144" width="1920" height="1080"/>
			</defs>
			<clipPath id="SVGID_6_">
				<use xlink:href="#SVGID_5_"  style="overflow:visible;"/>
			</clipPath>
			<path class="st4" d="M-692.2,380.6l-115.9-200.7l-10.7-18.5c-2.2-3.8-7.6-3.8-9.8,0l-79.2,137.2l-23.7,41l0,0h31.2l0,0l15.6-27
				l61.1-105.8L-702.2,417l10.1-17.6C-688.8,393.7-688.8,386.5-692.2,380.6z"/>
		</g>
	</g>
</g>
<g id="Layer_2">
	<g>
		<path class="st5" d="M1136.7,795.6L807.2,224.9l-50.4,87.3l47.1,81.6l197.5,342H260.5l32.7,56.7c10.9,18.9,31.2,30.6,53,30.6
			h705.6h69C1134.9,823.1,1143.8,807.8,1136.7,795.6z"/>
		<path class="st5" d="M907.3,572.8L907.3,572.8L907.3,572.8H411.7l0,0l0,0l197.5-342l151.2-262H695c-21.9,0-42.1,11.7-53,30.6
			L276.4,632.6c-7.1,12.2,1.8,27.5,15.9,27.5h69h596.4L907.3,572.8z"/>
		<path class="st5" d="M1279.3,705.1L904.6,56.2L870.1-3.6c-7.1-12.2-24.7-12.2-31.8,0L582.2,440.1l-76.6,132.7l0,0h100.8l0,0
			l50.4-87.3l197.5-342l392.4,679.7l32.7-56.9C1290.2,747.3,1290.2,724,1279.3,705.1z"/>
	</g>
</g>
</svg>
